<?xml version="1.0" encoding="utf-8"?>
<!-- Generator: Adobe Illustrator 24.2.3, SVG Export Plug-In . SVG Version: 6.00 Build 0)  -->
<svg version="1.1" id="Слой_1" xmlns="http://www.w3.org/2000/svg" xmlns:xlink="http://www.w3.org/1999/xlink" x="0px" y="0px"
	 viewBox="0 0 200.71 253.69" style="enable-background:new 0 0 200.71 253.69;" xml:space="preserve">
<style type="text/css">
	.st0{fill:#231F20;}
	.st1{fill:#EC1C24;}
</style>
<g>
	<path class="st0" d="M164.27,15.22c-21.89-19.05-47.28-20.28-71.16-3.32c-13.5,9.6-23.83,22.16-33.24,35.61
		c-6.04,8.66-9.51,19.26-19.78,24.75c-3.19,1.7-3.08,5.68-0.76,8.67c2.16,2.77,5.15,3.23,8.24,1.63c1.68-0.87,3.16-2.16,4.75-3.22
		c24.8-16.48,50.77-18.01,77.65-5.79c7.18,3.27,13.08,9.29,19.25,13.38c6.17,4.09,13.08,1.45,13.09-4.09
		c0.01-5.54-9.94-25.19-13.1-38.38c-2.01-8.34-0.45-10.82,7.56-14.03c1.41-0.58,2.86-1.12,4.35-1.42c3.32-0.68,6.42-1.53,7.19-5.5
		C169.07,19.7,166.84,17.45,164.27,15.22z M136.8,48.81c1.27,4.79,2.31,9.62,3.62,15.2c-22.48-11.38-45.49-14.77-70.73-7.59
		c11.98-17.26,24.23-32.49,43.1-40.48c12.07-5.11,23.82-3.75,35.53,3.89C135.43,26.31,133.57,36.59,136.8,48.81z"/>
	<path class="st0" d="M16.68,208.44c1.71-4.39-1.14-7.18-4.64-10.39c-14.62-13.38-15.94-30.79-3.88-48.21
		c2.05-2.96,2.96-5.47,2.38-9.36c-2.41-15.96,8.36-25.72,22.03-28.62c3.68-0.78,6.54,1.06,7.42,4.75c0.85,3.57-0.51,6.43-4.2,7.77
		c-0.9,0.33-1.84,0.56-2.74,0.88c-8.73,3.08-11.69,8.21-8.84,16.86c1.52,4.62,0.99,8.01-2.37,11.47c-2.1,2.17-3.77,4.86-5.22,7.54
		c-6.14,11.37-4.34,21.37,6.21,28.79c5.82,4.1,8.24,7.83,7.25,15.49c-2.01,15.63,5.17,23.68,20.81,25.86
		c0.95,0.13,1.93,0.29,2.87,0.2c9.31-0.94,17.53,0.76,25.9,5.93c10.11,6.25,20.91,3.85,29.93-3.7c4.02-3.37,7.62-4.35,12.57-2.61
		c3.18,1.12,6.81,1.56,10.2,1.4c9-0.42,15.04-5.1,17.8-13.78c1.08-3.41,2.54-5.92,6.61-7.03c17.01-4.65,22.29-14.53,16.7-31.29
		c-1.55-4.63-1.93-8.49,0.18-13.16c3.58-7.91,1.9-13.03-5.08-18.59c-3.12-2.49-4.01-5.15-2.72-9.02c3.2-9.64,1.78-12.36-8-15.87
		c-3.98-1.43-6.38-3.86-5.14-8.15c1.32-4.57,4.76-5.46,9.14-4.3c13.37,3.54,19.41,11.99,18.13,25.85c-0.19,2.04-0.01,3.52,1.5,5.16
		c7.05,7.66,8.09,16.77,5.32,26.36c-1.12,3.87-0.98,7.32,0.01,11.14c5.35,20.5-1.87,34.88-21.41,42.92
		c-2.04,0.84-3.36,1.9-4.41,4.02c-7.16,14.51-19.97,21.1-36.07,18.22c-4.71-0.84-8.2-0.03-12.26,2.47
		c-14.47,8.88-29.24,7.94-43.57-0.52c-3.35-1.98-6.52-2.74-10.27-2.52c-4.6,0.27-9.18,0.04-13.75-0.92
		C26.64,239.62,17.01,228.05,16.68,208.44z"/>
	<path class="st0" d="M122.9,169.28c-10.2,0.1-19.3-3.15-26.89-9.83c-2.93-2.58-4.22-2.06-6.74,0.35
		c-9.38,8.97-20.4,10.52-32.46,6.32c-4.33-1.51-7.33-4.1-5.64-8.94c1.69-4.83,5.44-4.99,9.9-3.41c10.15,3.6,17.54,0.71,23.98-8.97
		c5.3-7.97,8.53-7.97,14.58-0.36c7.54,9.48,17.24,13.64,29.4,11.24c1.5-0.3,3.03-0.44,4.56-0.54c3.68-0.26,5.9,1.73,6.58,5.08
		c0.71,3.45-0.96,6.08-4.24,7.23C131.74,168.9,127.33,169.29,122.9,169.28z"/>
	<path class="st1" d="M200.71,36.04c0.04,8.61-6.14,15.12-14.5,15.26c-8.07,0.14-15.03-6.72-15.11-14.89
		c-0.08-8.37,6.36-14.97,14.73-15.08C194.34,21.22,200.67,27.48,200.71,36.04z"/>
	<path class="st0" d="M147.38,101.51c-0.53-10.06-8.47-14.28-17.43-9.94c-9.57,4.64-19.23,9.08-28.77,13.76
		c-3.86,1.9-7.4,1.77-11.22-0.11c-10.09-4.96-20.27-9.75-30.44-14.57c-1.61-0.76-3.22-1.14-4.75-1.14c-3.12,0-5.97,1.55-8.08,4.5
		c-2.81,3.93-3.77,8.38-2.55,12.95c2.27,8.48,6.23,16.07,12.15,22.72c4.74,5.32,10.24,6.05,16.54,4.02
		c4.13-1.33,8.36-2.47,12.27-4.29c7.14-3.32,14.02-3.23,21.15-0.03c3.85,1.74,7.94,2.92,11.97,4.23c1.93,0.62,3.97,0.92,5.97,1.38
		c3.99,0.1,7.15-1.4,9.78-4.18c4.81-5.06,8.93-10.63,10.98-17.38C146.13,109.55,147.58,105.44,147.38,101.51z M66.78,116.3
		c-4.91-5.22-9.82-10.43-14.73-15.65c0.28-0.32,0.56-0.63,0.83-0.94c13.2,3.05,28.84,17.05,27.36,16.79
		c-2.27,5.91-4.72,6.96-8.1,3.68C72.14,120.18,67.03,116.14,66.78,116.3z M119.32,120.12c-3.59,3.32-6.08,2.22-8.06-3.53
		c-2.62,0.39,14.05-13.82,27.27-16.91c0.27,0.32,0.54,0.64,0.81,0.95c-4.93,5.23-9.85,10.46-14.77,15.69
		C124.32,116.16,122.23,118.13,119.32,120.12z"/>
</g>
</svg>
